<svg xmlns="http://www.w3.org/2000/svg" xmlns:xlink="http://www.w3.org/1999/xlink" width="425pt" height="369pt" viewBox="0 0 425 369" version="1.1">

<g id="surface1">
<path style=" stroke:none;fill-rule:nonzero;fill:rgb(40.391541%,48.234558%,54.902649%);fill-opacity:0.549;" d="M 69.039063 144.042969 L 85.988281 127.09375 L 102.9375 144.042969 L 85.988281 160.992188 Z M 69.039063 144.042969 "/>
<path style=" stroke:none;fill-rule:nonzero;fill:rgb(40.391541%,48.234558%,54.902649%);fill-opacity:0.8784;" d="M 85.988281 127.09375 L 102.9375 110.144531 L 119.886719 127.09375 L 102.9375 144.042969 Z M 85.988281 127.09375 "/>
<path style=" stroke:none;fill-rule:nonzero;fill:rgb(40.391541%,48.234558%,54.902649%);fill-opacity:0.8588;" d="M 102.9375 110.144531 L 119.886719 93.195313 L 136.835938 110.144531 L 119.886719 127.09375 Z M 102.9375 110.144531 "/>
<path style=" stroke:none;fill-rule:nonzero;fill:rgb(40.391541%,48.234558%,54.902649%);fill-opacity:1;" d="M 153.785156 59.296875 L 170.734375 42.347656 L 187.683594 59.296875 L 170.734375 76.246094 Z M 153.785156 59.296875 "/>
<path style=" stroke:none;fill-rule:nonzero;fill:rgb(40.391541%,48.234558%,54.902649%);fill-opacity:0.8196;" d="M 52.089844 194.894531 L 69.039063 177.945313 L 85.988281 194.894531 L 69.039063 211.84375 Z M 52.089844 194.894531 "/>
<path style=" stroke:none;fill-rule:nonzero;fill:rgb(40.391541%,48.234558%,54.902649%);fill-opacity:0.9608;" d="M 69.039063 177.945313 L 85.988281 160.992188 L 102.9375 177.945313 L 85.988281 194.894531 Z M 69.039063 177.945313 "/>
<path style=" stroke:none;fill-rule:nonzero;fill:rgb(40.391541%,48.234558%,54.902649%);fill-opacity:1;" d="M 85.988281 160.996094 L 102.9375 144.042969 L 119.886719 160.996094 L 102.9375 177.945313 Z M 85.988281 160.996094 "/>
<path style=" stroke:none;fill-rule:nonzero;fill:rgb(40.391541%,48.234558%,54.902649%);fill-opacity:0.9098;" d="M 102.9375 144.042969 L 119.886719 127.09375 L 136.835938 144.042969 L 119.886719 160.992188 Z M 102.9375 144.042969 "/>
<path style=" stroke:none;fill-rule:nonzero;fill:rgb(40.391541%,48.234558%,54.902649%);fill-opacity:1;" d="M 119.886719 127.09375 L 136.835938 110.144531 L 153.785156 127.09375 L 136.835938 144.042969 Z M 119.886719 127.09375 "/>
<path style=" stroke:none;fill-rule:nonzero;fill:rgb(23.921204%,32.940674%,41.567993%);fill-opacity:1;" d="M 136.835938 110.144531 L 153.785156 93.195313 L 170.734375 110.144531 L 153.785156 127.09375 Z M 136.835938 110.144531 "/>
<path style=" stroke:none;fill-rule:nonzero;fill:rgb(40.391541%,48.234558%,54.902649%);fill-opacity:1;" d="M 153.785156 93.195313 L 170.734375 76.246094 L 187.683594 93.195313 L 170.734375 110.144531 Z M 153.785156 93.195313 "/>
<path style=" stroke:none;fill-rule:nonzero;fill:rgb(40.391541%,48.234558%,54.902649%);fill-opacity:0.6706;" d="M 170.734375 76.246094 L 187.683594 59.296875 L 204.632813 76.246094 L 187.683594 93.195313 Z M 170.734375 76.246094 "/>
<path style=" stroke:none;fill-rule:nonzero;fill:rgb(23.921204%,32.940674%,41.567993%);fill-opacity:1;" d="M 204.472656 42.191406 L 221.421875 25.238281 L 238.375 42.191406 L 221.421875 59.140625 Z M 204.472656 42.191406 "/>
<path style=" stroke:none;fill-rule:nonzero;fill:rgb(23.921204%,32.940674%,41.567993%);fill-opacity:0.949;" d="M 52.089844 228.792969 L 69.039063 211.84375 L 85.988281 228.792969 L 69.039063 245.742188 Z M 52.089844 228.792969 "/>
<path style=" stroke:none;fill-rule:nonzero;fill:rgb(40.391541%,48.234558%,54.902649%);fill-opacity:0.7882;" d="M 85.988281 194.894531 L 102.9375 177.945313 L 119.886719 194.894531 L 102.9375 211.84375 Z M 85.988281 194.894531 "/>
<path style=" stroke:none;fill-rule:nonzero;fill:rgb(23.921204%,32.940674%,41.567993%);fill-opacity:1;" d="M 102.9375 177.945313 L 119.886719 160.992188 L 136.835938 177.945313 L 119.886719 194.894531 Z M 102.9375 177.945313 "/>
<path style=" stroke:none;fill-rule:nonzero;fill:rgb(40.391541%,48.234558%,54.902649%);fill-opacity:1;" d="M 119.886719 160.996094 L 136.835938 144.042969 L 153.785156 160.996094 L 136.835938 177.945313 Z M 119.886719 160.996094 "/>
<path style=" stroke:none;fill-rule:nonzero;fill:rgb(40.391541%,48.234558%,54.902649%);fill-opacity:0.7098;" d="M 136.835938 144.042969 L 153.785156 127.09375 L 170.734375 144.042969 L 153.785156 160.992188 Z M 136.835938 144.042969 "/>
<path style=" stroke:none;fill-rule:nonzero;fill:rgb(40.391541%,48.234558%,54.902649%);fill-opacity:1;" d="M 153.785156 127.09375 L 170.734375 110.144531 L 187.683594 127.09375 L 170.734375 144.042969 Z M 153.785156 127.09375 "/>
<path style=" stroke:none;fill-rule:nonzero;fill:rgb(33.724976%,42.352295%,49.803162%);fill-opacity:1;" d="M 170.734375 110.144531 L 187.683594 93.195313 L 204.632813 110.144531 L 187.683594 127.09375 Z M 170.734375 110.144531 "/>
<path style=" stroke:none;fill-rule:nonzero;fill:rgb(23.921204%,32.940674%,41.567993%);fill-opacity:1;" d="M 187.683594 93.195313 L 204.632813 76.246094 L 221.582031 93.195313 L 204.632813 110.144531 Z M 187.683594 93.195313 "/>
<path style=" stroke:none;fill-rule:nonzero;fill:rgb(40.391541%,48.234558%,54.902649%);fill-opacity:1;" d="M 204.632813 76.246094 L 221.582031 59.296875 L 238.53125 76.246094 L 221.582031 93.195313 Z M 204.632813 76.246094 "/>
<path style=" stroke:none;fill-rule:nonzero;fill:rgb(40.391541%,48.234558%,54.902649%);fill-opacity:0.2196;" d="M 69.195313 245.898438 L 86.144531 228.949219 L 103.09375 245.898438 L 86.144531 262.847656 Z M 69.195313 245.898438 "/>
<path style=" stroke:none;fill-rule:nonzero;fill:rgb(40.391541%,48.234558%,54.902649%);fill-opacity:0.9294;" d="M 103.09375 212 L 120.042969 195.050781 L 136.996094 212 L 120.042969 228.949219 Z M 103.09375 212 "/>
<path style=" stroke:none;fill-rule:nonzero;fill:rgb(40.391541%,48.234558%,54.902649%);fill-opacity:0.8392;" d="M 120.042969 195.050781 L 136.996094 178.101563 L 153.945313 195.050781 L 136.996094 212 Z M 120.042969 195.050781 "/>
<path style=" stroke:none;fill-rule:nonzero;fill:rgb(33.724976%,42.352295%,49.803162%);fill-opacity:1;" d="M 136.996094 178.101563 L 153.945313 161.152344 L 170.894531 178.101563 L 153.945313 195.050781 Z M 136.996094 178.101563 "/>
<path style=" stroke:none;fill-rule:nonzero;fill:rgb(40.391541%,48.234558%,54.902649%);fill-opacity:1;" d="M 153.945313 161.152344 L 170.894531 144.203125 L 187.84375 161.152344 L 170.894531 178.101563 Z M 153.945313 161.152344 "/>
<path style=" stroke:none;fill-rule:nonzero;fill:rgb(23.921204%,32.940674%,41.567993%);fill-opacity:1;" d="M 170.894531 144.203125 L 187.84375 127.253906 L 204.792969 144.203125 L 187.84375 161.152344 Z M 170.894531 144.203125 "/>
<path style=" stroke:none;fill-rule:nonzero;fill:rgb(40.391541%,48.234558%,54.902649%);fill-opacity:1;" d="M 187.84375 127.253906 L 204.792969 110.304688 L 221.742188 127.253906 L 204.792969 144.203125 Z M 187.84375 127.253906 "/>
<path style=" stroke:none;fill-rule:nonzero;fill:rgb(40.391541%,48.234558%,54.902649%);fill-opacity:0.6784;" d="M 238.691406 76.40625 L 255.640625 59.457031 L 272.589844 76.40625 L 255.640625 93.355469 Z M 238.691406 76.40625 "/>
<path style=" stroke:none;fill-rule:nonzero;fill:rgb(33.724976%,42.352295%,49.803162%);fill-opacity:1;" d="M 255.640625 59.457031 L 272.589844 42.507813 L 289.539063 59.457031 L 272.589844 76.40625 Z M 255.640625 59.457031 "/>
<path style=" stroke:none;fill-rule:nonzero;fill:rgb(23.921204%,32.940674%,41.567993%);fill-opacity:1;" d="M 102.9375 245.742188 L 119.886719 228.792969 L 136.835938 245.742188 L 119.886719 262.691406 Z M 102.9375 245.742188 "/>
<path style=" stroke:none;fill-rule:nonzero;fill:rgb(40.391541%,48.234558%,54.902649%);fill-opacity:0.7882;" d="M 119.886719 228.792969 L 136.835938 211.84375 L 153.785156 228.792969 L 136.835938 245.742188 Z M 119.886719 228.792969 "/>
<path style=" stroke:none;fill-rule:nonzero;fill:rgb(40.391541%,48.234558%,54.902649%);fill-opacity:1;" d="M 136.835938 211.84375 L 153.785156 194.894531 L 170.734375 211.84375 L 153.785156 228.792969 Z M 136.835938 211.84375 "/>
<path style=" stroke:none;fill-rule:nonzero;fill:rgb(40.391541%,48.234558%,54.902649%);fill-opacity:0.8784;" d="M 153.785156 194.894531 L 170.734375 177.945313 L 187.683594 194.894531 L 170.734375 211.84375 Z M 153.785156 194.894531 "/>
<path style=" stroke:none;fill-rule:nonzero;fill:rgb(40.391541%,48.234558%,54.902649%);fill-opacity:0.3882;" d="M 170.734375 177.945313 L 187.683594 160.992188 L 204.632813 177.945313 L 187.683594 194.894531 Z M 170.734375 177.945313 "/>
<path style=" stroke:none;fill-rule:nonzero;fill:rgb(40.391541%,48.234558%,54.902649%);fill-opacity:0.702;" d="M 187.683594 160.996094 L 204.632813 144.042969 L 221.582031 160.996094 L 204.632813 177.945313 Z M 187.683594 160.996094 "/>
<path style=" stroke:none;fill-rule:nonzero;fill:rgb(40.391541%,48.234558%,54.902649%);fill-opacity:0.2118;" d="M 204.632813 144.042969 L 221.582031 127.09375 L 238.53125 144.042969 L 221.582031 160.992188 Z M 204.632813 144.042969 "/>
<path style=" stroke:none;fill-rule:nonzero;fill:rgb(40.391541%,48.234558%,54.902649%);fill-opacity:1;" d="M 221.582031 127.09375 L 238.53125 110.144531 L 255.480469 127.09375 L 238.53125 144.042969 Z M 221.582031 127.09375 "/>
<path style=" stroke:none;fill-rule:nonzero;fill:rgb(40.391541%,48.234558%,54.902649%);fill-opacity:0.902;" d="M 238.53125 110.144531 L 255.480469 93.195313 L 272.429688 110.144531 L 255.480469 127.09375 Z M 238.53125 110.144531 "/>
<path style=" stroke:none;fill-rule:nonzero;fill:rgb(40.391541%,48.234558%,54.902649%);fill-opacity:0.7882;" d="M 35.140625 144.042969 L 52.089844 127.09375 L 69.039063 144.042969 L 52.089844 160.992188 Z M 35.140625 144.042969 "/>
<path style=" stroke:none;fill-rule:nonzero;fill:rgb(23.921204%,32.940674%,41.567993%);fill-opacity:1;" d="M 52.089844 127.09375 L 69.039063 110.144531 L 85.988281 127.09375 L 69.039063 144.042969 Z M 52.089844 127.09375 "/>
<path style=" stroke:none;fill-rule:nonzero;fill:rgb(40.391541%,48.234558%,54.902649%);fill-opacity:1;" d="M 69.039063 110.144531 L 85.988281 93.195313 L 102.9375 110.144531 L 85.988281 127.09375 Z M 69.039063 110.144531 "/>
<path style=" stroke:none;fill-rule:nonzero;fill:rgb(40.391541%,48.234558%,54.902649%);fill-opacity:0.7098;" d="M 85.988281 93.195313 L 102.9375 76.246094 L 119.886719 93.195313 L 102.9375 110.144531 Z M 85.988281 93.195313 "/>
<path style=" stroke:none;fill-rule:nonzero;fill:rgb(40.391541%,48.234558%,54.902649%);fill-opacity:1;" d="M 102.9375 76.246094 L 119.886719 59.296875 L 136.835938 76.246094 L 119.886719 93.195313 Z M 102.9375 76.246094 "/>
<path style=" stroke:none;fill-rule:nonzero;fill:rgb(23.921204%,32.940674%,41.567993%);fill-opacity:1;" d="M 136.835938 42.347656 L 153.785156 25.398438 L 170.734375 42.347656 L 153.785156 59.296875 Z M 136.835938 42.347656 "/>
<path style=" stroke:none;fill-rule:nonzero;fill:rgb(40.391541%,48.234558%,54.902649%);fill-opacity:1;" d="M 153.785156 25.398438 L 170.734375 8.449219 L 187.683594 25.398438 L 170.734375 42.347656 Z M 153.785156 25.398438 "/>
<path style=" stroke:none;fill-rule:nonzero;fill:rgb(40.391541%,48.234558%,54.902649%);fill-opacity:0.8196;" d="M 102.9375 279.640625 L 119.886719 262.691406 L 136.835938 279.640625 L 119.886719 296.589844 Z M 102.9375 279.640625 "/>
<path style=" stroke:none;fill-rule:nonzero;fill:rgb(40.391541%,48.234558%,54.902649%);fill-opacity:0.9608;" d="M 170.574219 279.480469 L 187.523438 262.53125 L 204.472656 279.480469 L 187.523438 296.429688 Z M 170.574219 279.480469 "/>
<path style=" stroke:none;fill-rule:nonzero;fill:rgb(40.391541%,48.234558%,54.902649%);fill-opacity:1;" d="M 153.785156 228.792969 L 170.734375 211.84375 L 187.683594 228.792969 L 170.734375 245.742188 Z M 153.785156 228.792969 "/>
<path style=" stroke:none;fill-rule:nonzero;fill:rgb(40.391541%,48.234558%,54.902649%);fill-opacity:0.9098;" d="M 170.734375 211.84375 L 187.683594 194.894531 L 204.632813 211.84375 L 187.683594 228.792969 Z M 170.734375 211.84375 "/>
<path style=" stroke:none;fill-rule:nonzero;fill:rgb(40.391541%,48.234558%,54.902649%);fill-opacity:1;" d="M 187.683594 194.894531 L 204.632813 177.945313 L 221.582031 194.894531 L 204.632813 211.84375 Z M 187.683594 194.894531 "/>
<path style=" stroke:none;fill-rule:nonzero;fill:rgb(33.724976%,42.352295%,49.803162%);fill-opacity:1;" d="M 204.632813 177.945313 L 221.582031 160.992188 L 238.53125 177.945313 L 221.582031 194.894531 Z M 204.632813 177.945313 "/>
<path style=" stroke:none;fill-rule:nonzero;fill:rgb(40.391541%,48.234558%,54.902649%);fill-opacity:1;" d="M 221.582031 160.996094 L 238.53125 144.042969 L 255.480469 160.996094 L 238.53125 177.945313 Z M 221.582031 160.996094 "/>
<path style=" stroke:none;fill-rule:nonzero;fill:rgb(40.391541%,48.234558%,54.902649%);fill-opacity:0.6706;" d="M 272.273438 177.785156 L 289.222656 160.835938 L 306.171875 177.785156 L 289.222656 194.734375 Z M 272.273438 177.785156 "/>
<path style=" stroke:none;fill-rule:nonzero;fill:rgb(23.921204%,32.940674%,41.567993%);fill-opacity:1;" d="M 289.378906 93.195313 L 306.328125 76.246094 L 323.277344 93.195313 L 306.328125 110.144531 Z M 289.378906 93.195313 "/>
<path style=" stroke:none;fill-rule:nonzero;fill:rgb(40.391541%,48.234558%,54.902649%);fill-opacity:0.2196;" d="M 136.675781 279.480469 L 153.625 262.53125 L 170.574219 279.480469 L 153.625 296.429688 Z M 136.675781 279.480469 "/>
<path style=" stroke:none;fill-rule:nonzero;fill:rgb(40.391541%,48.234558%,54.902649%);fill-opacity:0.8314;" d="M 187.367188 296.273438 L 204.316406 279.324219 L 221.265625 296.273438 L 204.316406 313.222656 Z M 187.367188 296.273438 "/>
<path style=" stroke:none;fill-rule:nonzero;fill:rgb(40.391541%,48.234558%,54.902649%);fill-opacity:0.6784;" d="M 170.574219 245.582031 L 187.523438 228.632813 L 204.472656 245.582031 L 187.523438 262.53125 Z M 170.574219 245.582031 "/>
<path style=" stroke:none;fill-rule:nonzero;fill:rgb(33.724976%,42.352295%,49.803162%);fill-opacity:1;" d="M 221.265625 262.371094 L 238.214844 245.421875 L 255.164063 262.371094 L 238.214844 279.324219 Z M 221.265625 262.371094 "/>
<path style=" stroke:none;fill-rule:nonzero;fill:rgb(40.391541%,48.234558%,54.902649%);fill-opacity:0.451;" d="M 238.214844 245.421875 L 255.164063 228.472656 L 272.113281 245.421875 L 255.164063 262.371094 Z M 238.214844 245.421875 "/>
<path style=" stroke:none;fill-rule:nonzero;fill:rgb(23.921204%,32.940674%,41.567993%);fill-opacity:1;" d="M 221.421875 194.734375 L 238.375 177.785156 L 255.324219 194.734375 L 238.375 211.683594 Z M 221.421875 194.734375 "/>
<path style=" stroke:none;fill-rule:nonzero;fill:rgb(40.391541%,48.234558%,54.902649%);fill-opacity:0.8784;" d="M 272.113281 211.523438 L 289.0625 194.574219 L 306.011719 211.523438 L 289.0625 228.472656 Z M 272.113281 211.523438 "/>
<path style=" stroke:none;fill-rule:nonzero;fill:rgb(40.391541%,48.234558%,54.902649%);fill-opacity:0.6784;" d="M 289.0625 194.574219 L 306.011719 177.625 L 322.960938 194.574219 L 306.011719 211.523438 Z M 289.0625 194.574219 "/>
<path style=" stroke:none;fill-rule:nonzero;fill:rgb(33.724976%,42.352295%,49.803162%);fill-opacity:1;" d="M 272.273438 143.886719 L 289.222656 126.9375 L 306.171875 143.886719 L 289.222656 160.835938 Z M 272.273438 143.886719 "/>
<path style="stroke:none;fill-rule:nonzero;fill: #eff1f3;fill-opacity:0.6706;" d="M 60.828125 254.164063 L 280.851563 34.136719 L 391.101563 144.386719 L 171.078125 364.410156 Z M 60.828125 254.164063 "/>
<path style="fill:none;stroke-width:76200;stroke-linecap:butt;stroke-linejoin:miter;stroke:rgb(23.921204%,32.940674%,41.567993%);stroke-opacity:1;stroke-miterlimit:8;" d="M -1.508125 15.160625 L 979485.960531 1006539.737791 " transform="matrix(0.0000787402,0,0,0.0000787402,119.4884,143.4324)"/>
<path style="fill:none;stroke-width:78740;stroke-linecap:butt;stroke-linejoin:miter;stroke:rgb(100%,100%,100%);stroke-opacity:1;stroke-miterlimit:8;" d="M -1.508125 15.160625 L 327916.450132 330661.634419 " transform="matrix(0.0000787402,0,0,0.0000787402,119.4884,143.4324)"/>
<path style="fill:none;stroke-width:76200;stroke-linecap:butt;stroke-linejoin:miter;stroke:rgb(23.921204%,32.940674%,41.567993%);stroke-opacity:1;stroke-miterlimit:8;" d="M -24.129999 9.604375 L 832321.937116 1419681.04332 " transform="matrix(-0.0000787402,0,0,0.0000787402,274.3731,116.8469)"/>
<path style="fill-rule:nonzero;fill:rgb(100%,100%,100%);fill-opacity:1;stroke-width:76200;stroke-linecap:butt;stroke-linejoin:miter;stroke:rgb(23.921204%,32.940674%,41.567993%);stroke-opacity:1;stroke-miterlimit:8;" d="M -6.429375 186558.152155 C -6.429375 83519.483577 83535.755452 -22.701249 186574.42403 -22.701249 C 289563.483234 -22.701249 373105.668061 83519.483577 373105.668061 186558.152155 C 373105.668061 289596.820733 289563.483234 373089.396186 186574.42403 373089.396186 C 83535.755452 373089.396186 -6.429375 289596.820733 -6.429375 186558.152155 Z M -6.429375 186558.152155 " transform="matrix(0.0000787402,0,0,0.0000787402,192.3091,218.3846)"/>
<path style="fill:none;stroke-width:76200;stroke-linecap:butt;stroke-linejoin:miter;stroke:rgb(23.921204%,32.940674%,41.567993%);stroke-opacity:1;stroke-miterlimit:8;" d="M 16.986249 7.223125 L 2021598.952809 203504.872863 " transform="matrix(0.0000787402,0,0,-0.0000787402,111.1471,132.2701)"/>
<path style="fill-rule:nonzero;fill:rgb(100%,100%,100%);fill-opacity:1;stroke-width:76200;stroke-linecap:butt;stroke-linejoin:miter;stroke:rgb(23.921204%,32.940674%,41.567993%);stroke-opacity:1;stroke-miterlimit:8;" d="M -3.889375 186530.132781 C -3.889375 83541.073577 83538.295452 -1.11125 186576.96403 -1.11125 C 289566.023234 -1.11125 373108.208061 83541.073577 373108.208061 186530.132781 C 373108.208061 289568.801359 289566.023234 373110.986185 186576.96403 373110.986185 C 83538.295452 373110.986185 -3.889375 289568.801359 -3.889375 186530.132781 Z M -3.889375 186530.132781 " transform="matrix(0.0000787402,0,0,0.0000787402,259.6839,101.5079)"/>
<path style="fill:none;stroke-width:78740;stroke-linecap:butt;stroke-linejoin:miter;stroke:rgb(100%,100%,100%);stroke-opacity:1;stroke-miterlimit:8;" d="M -23.098124 18.653124 L 1071340.930092 108663.180898 " transform="matrix(0.0000787402,0,0,-0.0000787402,110.4276,132.3335)"/>
<path style="fill-rule:nonzero;fill:rgb(23.921204%,32.940674%,41.567993%);fill-opacity:1;stroke-width:76200;stroke-linecap:butt;stroke-linejoin:miter;stroke:rgb(100%,100%,100%);stroke-opacity:1;stroke-miterlimit:8;" d="M 23.653749 186571.56653 C 23.653749 83532.897952 83516.229202 -9.286875 186554.89778 -9.286875 C 289593.566358 -9.286875 373086.141811 83532.897952 373086.141811 186571.56653 C 373086.141811 289560.625734 289593.566358 373102.810561 186554.89778 373102.810561 C 83516.229202 373102.810561 23.653749 289560.625734 23.653749 186571.56653 Z M 23.653749 186571.56653 " transform="matrix(0.0000787402,0,0,0.0000787402,94.4122,118.3562)"/>
<path style=" stroke:none;fill-rule:evenodd;fill:rgb(23.921204%,32.940674%,41.567993%);fill-opacity:1;" d="M 194.535156 120.648438 L 187.875 127.445313 L 195.28125 126.796875 Z M 194.535156 120.648438 "/>
</g>
</svg>