<svg xmlns="http://www.w3.org/2000/svg" xmlns:xlink="http://www.w3.org/1999/xlink" width="15px" height="15px" viewBox="0 0 10 10" version="1.1">
    <g id="Artboard-Copy" stroke="none" stroke-width="1" fill="none" fill-rule="evenodd">
        <g id="Group-28" fill="#FF8C00" fill-rule="nonzero">
            <path d="M6.97755963,3.6465 C6.93705933,3.557 6.84805868,3.5 6.75005797,3.5 L5.75005068,3.5 L5.75005068,0.25 C5.75005068,0.112 5.63804987,0 5.50004886,0 L4.50004158,0 C4.36204057,0 4.25003976,0.112 4.25003976,0.25 L4.25003976,3.5 L3.25003248,3.5 C3.15203176,3.5 3.06303111,3.5575 3.02253082,3.6465 C2.98153052,3.736 2.99753064,3.8405 3.06203111,3.9145 L4.81204385,5.9145 C4.8595442,5.969 4.9280447,6 5.00004522,6 C5.07204575,6 5.14054625,5.9685 5.18804659,5.9145 L6.93805934,3.9145 C7.00305981,3.841 7.01805992,3.736 6.97755963,3.6465 Z M8.66666667,7 L8.66666667,8.8 L1.33333333,8.8 L1.33333333,7 L0,7 L0,9.4 C0,9.7318 0.298666667,10 0.666666667,10 L9.33333333,10 C9.702,10 10,9.7318 10,9.4 L10,7 L8.66666667,7 Z" id="Path-Copy-17"/>
            <path d="" id="Path-Copy-18"/>
        </g>
    </g>
</svg>