<svg xmlns="http://www.w3.org/2000/svg" xmlns:xlink="http://www.w3.org/1999/xlink" version="1.1" id="Layer_1" x="0px" y="0px" width="608.97px" height="575.972px" viewBox="0 0 608.97 575.972" enable-background="new 0 0 608.97 575.972" xml:space="preserve">
<g>
	<g>
		<path d="M87.432,459.214h-14.7v21.359H65.9v-60.531h22.655c13.663,0,22.656,7.264,22.656,19.283    C111.212,452.47,100.316,459.214,87.432,459.214z M88.037,426.354H72.731v26.635h14.96c10.03,0,16.603-5.361,16.603-13.404    C104.294,430.853,97.809,426.354,88.037,426.354z"/>
		<path d="M217.229,480.573l-17.554-23.521H182.38v23.521h-6.831v-60.531h26.028c13.316,0,21.877,7.178,21.877,18.072    c0,10.117-6.918,15.998-16.43,17.729l18.592,24.73H217.229z M201.058,426.354H182.38v24.559h18.592    c9.079,0,15.564-4.67,15.564-12.539C216.536,430.853,210.829,426.354,201.058,426.354z"/>
		<path d="M297.391,420.042v60.531h-6.831v-60.531H297.391z"/>
		<path d="M388.705,447.022c13.49,2.939,19.716,7.869,19.716,17.207c0,10.463-8.647,17.207-20.667,17.207    c-9.598,0-17.467-3.199-24.73-9.684l4.237-5.016c6.312,5.707,12.365,8.561,20.753,8.561c8.128,0,13.489-4.236,13.489-10.377    c0-5.707-3.026-8.906-15.737-11.586c-13.922-3.027-20.321-7.523-20.321-17.555c0-9.686,8.388-16.602,19.889-16.602    c8.82,0,15.133,2.508,21.272,7.436l-3.979,5.275c-5.62-4.584-11.241-6.572-17.467-6.572c-7.869,0-12.885,4.324-12.885,9.857    C372.275,440.97,375.389,444.169,388.705,447.022z"/>
		<path d="M503.283,463.97h-0.346l-22.051-32.34v48.943h-6.658v-60.531h6.918l22.05,33.033l22.051-33.033h6.918v60.531h-6.832    v-49.029L503.283,463.97z"/>
	</g>
</g>
<g>
	<path fill="#ED2E2C" d="M375.265,202.124c-3.924-6.849-12.658-9.221-19.506-5.297c-4.98,2.854-7.578,8.253-7.123,13.62   l-61.334,35.14l6.023,3.48l0.002,6.897l61.262-35.099c4.402,3.126,10.389,3.623,15.379,0.764   C376.815,217.706,379.188,208.972,375.265,202.124z"/>
	<path d="M287.302,245.587l-117.143,67.115c-4.4-3.106-10.369-3.598-15.352-0.744c-6.848,3.924-9.219,12.658-5.297,19.506   c3.924,6.849,12.658,9.22,19.508,5.297c4.99-2.859,7.59-8.276,7.119-13.654l117.189-67.142l-0.002-6.897L287.302,245.587z"/>
	<path fill="#00ABB4" d="M417.378,336.556c6.85,3.923,15.584,1.552,19.508-5.297c3.922-6.848,1.551-15.582-5.297-19.506   c-4.982-2.854-10.951-2.362-15.352,0.744l-116.838-66.938l-6.074,3.509l-0.002,6.839l116.936,66.995   C409.788,328.279,412.388,333.696,417.378,336.556z"/>
	<path fill="#F89E1E" d="M299.333,245.601V110.264c4.883-2.272,8.277-7.21,8.277-12.95c0-7.893-6.4-14.292-14.293-14.292   s-14.291,6.399-14.291,14.292c0,5.753,3.406,10.699,8.307,12.966V245.61l5.992,3.457L299.333,245.601z"/>
</g>
</svg>