<svg xmlns="http://www.w3.org/2000/svg" xmlns:xlink="http://www.w3.org/1999/xlink" width="50px" height="30px" viewBox="35 1 50 80" version="1.1">
<g id="surface1" style="transform: scale(0.75);">
<path style="fill:none;stroke-width: 40000;stroke-linecap:butt;stroke-linejoin:miter;stroke:#677b8c;stroke-opacity:1;stroke-miterlimit:8;" d="M 966206.067209 -12.155154 C 1238565.83588 -9.013275 1498282.781432 114009.921749 1681429.957687 313926.185754 " transform="matrix(0.0000760572,0.0000203795,-0.0000203795,0.0000760572,-16.21369,-6.97498)"/>
<path style=" stroke:none;fill-rule:nonzero;fill:#677b8c;fill-opacity:1;" d="M 96.253906 49.878906 C 96.253906 45.363281 99.917969 41.703125 104.433594 41.703125 C 108.953125 41.703125 112.613281 45.363281 112.613281 49.878906 C 112.613281 54.398438 108.953125 58.058594 104.433594 58.058594 C 99.917969 58.058594 96.253906 54.398438 96.253906 49.878906 Z M 96.253906 49.878906 "/>
<path style="fill:none;stroke-width: 40000;stroke-linecap:butt;stroke-linejoin:miter;stroke:#677b8c;stroke-opacity:1;stroke-miterlimit:8;" d="M 966182.345398 -5.798915 C 1226881.275149 -11.068688 1476485.406684 104442.688541 1658410.212645 289638.179867 " transform="matrix(-0.0000760572,0.0000203795,0.0000203795,0.0000760572,129.3016,-6.97498)"/>
<path style=" stroke:none;fill-rule:nonzero;fill:#677b8c;fill-opacity:1;" d="M 18.972656 49.878906 C 18.972656 45.363281 15.3125 41.703125 10.792969 41.703125 C 6.277344 41.703125 2.617188 45.363281 2.617188 49.878906 C 2.617188 54.398438 6.277344 58.058594 10.792969 58.058594 C 15.3125 58.058594 18.972656 54.398438 18.972656 49.878906 Z M 18.972656 49.878906 "/>
<path style=" stroke:none;fill-rule:nonzero;fill:#677b8c;fill-opacity:1;" d="M 67.222656 14.355469 C 67.222656 7.945313 62.027344 2.75 55.617188 2.75 C 49.207031 2.75 44.011719 7.945313 44.011719 14.355469 C 44.011719 20.765625 49.207031 25.960938 55.617188 25.960938 C 62.027344 25.960938 67.222656 20.765625 67.222656 14.355469 Z M 67.222656 14.355469 "/>
<path style="fill:none;stroke-width: 40000;stroke-linecap:butt;stroke-linejoin:miter;stroke:#677b8c;stroke-opacity:1;stroke-miterlimit:8;" d="M 3.27025 -7.01675 L 3.27025 607558.979433 " transform="matrix(0.0000787402,0,0,0.0000787402,55.61693,25.96149)"/>
<path style=" stroke:none;fill-rule:nonzero;fill:#677b8c;fill-opacity:1;" d="M 63.695313 73.800781 C 63.695313 69.28125 60.035156 65.621094 55.515625 65.621094 C 51 65.621094 47.339844 69.28125 47.339844 73.800781 C 47.339844 78.316406 51 81.980469 55.515625 81.980469 C 60.035156 81.980469 63.695313 78.316406 63.695313 73.800781 Z M 63.695313 73.800781 "/>
</g>
</svg>